<svg viewBox="0 0 24 24" xmlns="http://www.w3.org/2000/svg" class="line-icon"><path d="M19.955 4.045c4.387 4.386 4.387 11.524 0 15.91A11.216 11.216 0 0112 23.245a11.216 11.216 0 01-7.955-3.29c-4.387-4.386-4.387-11.524 0-15.91 4.387-4.386 11.523-4.386 15.91 0zM12 2.255a9.72 9.72 0 00-6.895 2.85c-3.801 3.802-3.801 9.988 0 13.79 3.802 3.8 9.988 3.8 13.79 0 3.801-3.802 3.801-9.988 0-13.79A9.72 9.72 0 0012 2.256zm-3.275 5.42l3.269 3.27 3.27-3.27a.75.75 0 011.06 1.06l-3.27 3.27 3.27 3.27a.749.749 0 11-1.06 1.06l-3.27-3.27-3.27 3.27a.744.744 0 01-.53.22.749.749 0 01-.53-1.28l3.27-3.27-3.27-3.27a.749.749 0 111.06-1.06z" fill="#6B7684" fill-rule="evenodd"></path></svg>